<?xml version="1.0" encoding="utf-8"?>
<!-- Generator: Adobe Illustrator 23.0.1, SVG Export Plug-In . SVG Version: 6.00 Build 0)  -->
<svg version="1.1" baseProfile="tiny" id="Layer_1" xmlns="http://www.w3.org/2000/svg" xmlns:xlink="http://www.w3.org/1999/xlink"
	 x="0px" y="0px" viewBox="0 0 1061.7 516.4" xml:space="preserve">
<g>
	<g id="XMLID_1_">
		<g>
			<polygon fill="#E8E8E8" points="953.9,3.5 667.5,4.2 667.5,507.5 1056.5,507.5 1056.5,111.1 989.9,60.4 			"/>
			<path fill="#F1F1F1" d="M973.2,111.1h83.3L954.3,4.2v88C954.3,102.6,962.8,111.1,973.2,111.1z"/>
		</g>
		<g>
			<path id="XMLID_6_" fill="#215ABF" d="M639.1,28.1l238.7,1c6.1,0,11,5.5,11,12.2V142c0,6.7-5,12.2-11.1,12.2l-238.7-1
				c-6.1,0-11-5.5-11-12.2V40.3C628,33.5,632.9,28.1,639.1,28.1z"/>
		</g>
	</g>
	<text transform="matrix(0.7106 0 0 1 654.3263 134.8254)" fill="#FFFFFF" font-family="'Arial-Black'" font-size="121.539px">T</text>
	<text transform="matrix(0.7106 0 0 1 724.9054 134.8254)" fill="#FFFFFF" font-family="'Arial-Black'" font-size="121.539px">X</text>
	<text transform="matrix(0.7106 0 0 1 800.2931 134.8254)" fill="#FFFFFF" font-family="'Arial-Black'" font-size="121.539px">T</text>
	<path fill="#215ABF" d="M916.4,239.8H726.8c-1.8,0-3.3-1.5-3.3-3.3V235c0-1.8,1.5-3.3,3.3-3.3h189.7c1.8,0,3.3,1.5,3.3,3.3v1.5
		C919.7,238.3,918.2,239.8,916.4,239.8z"/>
	<path fill="#215ABF" d="M1016,266H727.5c-2.2,0-4-1.8-4-4l0,0c0-2.2,1.8-4,4-4H1016c2.2,0,4,1.8,4,4l0,0
		C1020.1,264.2,1018.3,266,1016,266z"/>
	<path fill="#215ABF" d="M977.2,292.2h-250c-2.1,0-3.7-1.7-3.7-3.7v-0.5c0-2.1,1.7-3.7,3.7-3.7h250c2.1,0,3.7,1.7,3.7,3.7v0.5
		C981,290.5,979.3,292.2,977.2,292.2z"/>
	<path fill="#215ABF" d="M889.6,318.3h-163c-1.7,0-3-1.4-3-3v-2c0-1.7,1.4-3,3-3h163c1.7,0,3,1.4,3,3v2
		C892.6,317,891.3,318.3,889.6,318.3z"/>
	<path fill="#215ABF" d="M963.7,370.7H727.1c-2,0-3.6-1.6-3.6-3.6v-0.7c0-2,1.6-3.6,3.6-3.6h236.5c2,0,3.6,1.6,3.6,3.6v0.7
		C967.3,369.1,965.7,370.7,963.7,370.7z"/>
	<path fill="#215ABF" d="M1016,396.9H727.5c-2.2,0-4-1.8-4-4l0,0c0-2.2,1.8-4,4-4H1016c2.2,0,4,1.8,4,4l0,0
		C1020.1,395.1,1018.3,396.9,1016,396.9z"/>
	<path fill="#215ABF" d="M989.3,423H727.3c-2.1,0-3.8-1.7-3.8-3.8v-0.4c0-2.1,1.7-3.8,3.8-3.8h261.9c2.1,0,3.8,1.7,3.8,3.8v0.4
		C993.1,421.3,991.4,423,989.3,423z"/>
	<path fill="#215ABF" d="M887,449.2H726.5c-1.7,0-3-1.3-3-3v-2c0-1.7,1.3-3,3-3H887c1.7,0,3,1.3,3,3v2
		C890,447.9,888.7,449.2,887,449.2z"/>
</g>
<g>
	<polygon fill="#6E6E6E" points="394.4,339.9 500.4,339.9 515.8,339.9 515.8,407.1 698,301.8 515.8,196.6 515.8,263.8 500.4,263.8 
		394.4,263.8 	"/>
</g>
<g id="XMLID_16_">
	<g>
		<polygon fill="#E8E8E8" points="329,3.5 42.6,4.2 42.6,507.5 431.6,507.5 431.6,111.1 365,60.4 		"/>
		<path fill="#F1F1F1" d="M348.3,111.1h83.3L329.4,4.2v88C329.4,102.6,337.8,111.1,348.3,111.1z"/>
	</g>
	<path id="XMLID_28_" fill="#DC1D00" d="M362.9,349.9c-0.1-1.7-1.7-22-37.9-21.2c-36,0.8-44.9,3.1-44.9,3.1s-26.9-27.4-36.8-48.5
		c0,0,11.9-34.9,11.4-56.8c-0.6-21.9-5.8-34.5-22.6-34.4S212.9,207,215,228.9c2,19.6,12.2,42.8,12.2,42.8s-7.7,24.1-18.1,48.2
		c-10.2,24.1-17.2,36.8-17.2,36.8s-34.8,11.6-49.8,25.7s-21.2,24.8-13.3,35.6c6.9,9.3,30.7,11.4,52.2-16.7c21.3-28,31-45.6,31-45.6
		s32.7-9,42.8-11.4c10.1-2.4,22.4-4.4,22.4-4.4s29.7,30,58.5,28.9C364.4,367.7,363,351.6,362.9,349.9z M136.2,413.2
		c-17.8-10.7,37.4-43.6,47.5-44.8C183.7,368.4,155,424.4,136.2,413.2z M221.2,221c0-17.4,5.6-22,10-22s9.3,2.1,9.4,17.1
		c0.1,15-9.4,44.5-9.4,44.5C227.9,257.1,221.2,238.3,221.2,221z M244.3,339.8c-18,4.4-26.9,9-26.9,9s0,0,7.3-16.4
		s14.9-38.9,14.9-38.9c10.1,18.9,30.3,41.2,30.3,41.2S262.3,335.3,244.3,339.8z M287.4,338.3c0,0,58.4-10.5,58.4,9.4
		C345.8,367.5,309.6,359.3,287.4,338.3z"/>
	<g>
		<path id="XMLID_30_" fill="#DC1D00" d="M14.2,28.1l238.7,1c6.1,0,11,5.5,11,12.2V142c0,6.7-5,12.2-11.1,12.2l-238.7-1
			c-6.1,0-11-5.5-11-12.2V40.3C3.1,33.5,8,28.1,14.2,28.1z"/>
		<g id="XMLID_23_">
			<path id="XMLID_43_" fill="#FFFEFE" d="M63.8,91.3c-0.6,0-1.1,0-1.7,0V64.2h3.5c4.1,0,6.6,1.3,8.4,3.4c2.2,2.5,3.4,7,3.4,10.2
				c0,4.5,0,8.6-4.1,11.5C71.2,90.8,67.7,91.3,63.8,91.3 M67.3,49.3c-0.1,0-0.4,0-0.6,0c-1.8,0-3.1,0-3.8,0H43.4v87.8h18.8v-29.6
				l4.2,0.3c4.3,0,8.3-1,11.8-2.1c3.5-1.1,6.4-3.1,9-5.3c2.5-2.2,4.9-5.1,6.2-8.3c2-4.9,2.4-11.8,2-16.6c-0.6-4.8-0.7-8.7-2.1-11.8
				c-1.4-3.1-3.2-5.6-5.3-7.6c-2.2-2-4.6-3.4-7.1-4.3c-2.7-1-5.1-1.5-7.6-2C70.9,49.5,69,49.3,67.3,49.3"/>
			<path id="XMLID_32_" fill="#FFFEFE" d="M127.6,121.1c-0.6,0-1.1,0-1.8,0v-56c0.1,0,0.1,0,0.3,0c3.8,0,8.6,0,10.9,2
				c2.5,2,4.5,4.5,5.9,7.3c1.4,2.9,2.4,6.2,2.5,9.7c0.1,4.1,0,7.3,0,10.1c0,2.7,0,6-0.6,9.4s-1.7,6.3-3.1,9.3
				c-1.5,2.8-4.2,4.8-6.6,6.6C133.1,120.7,130.6,121.1,127.6,121.1 M131,49.2c-2,0-4.1,0.1-5.3,0.1c-2.4,0.1-3.8,0.1-4.4,0.1H107
				v87.8h16.8c7.4,0,13.6-1.1,18.8-3.2c5.2-2.1,9.3-5.2,12.5-9c3.1-3.8,5.5-8.4,6.9-13.8s2.1-11.1,2.1-17.4c0-8.1,0-14.4-1.5-20.6
				c-1.4-5.6-4.4-10.1-7.4-13.5c-2.9-3.4-6.3-5.8-9.8-7.3s-6.9-2.7-10.1-3.2C133.8,49.2,132.4,49.2,131,49.2"/>
			<polyline id="XMLID_24_" fill="#FFFEFE" points="220.5,49.5 176,49.5 176,137.3 194.8,137.3 194.8,102.3 218.5,102.3 218.5,86.1 
				194.8,86.1 194.8,65.7 220.5,65.7 220.5,49.5 			"/>
		</g>
	</g>
</g>
</svg>
